<svg xmlns="http://www.w3.org/2000/svg" xmlns:xlink="http://www.w3.org/1999/xlink" width="169px" height="49px" viewBox="0 0 169 49"><title>Gigapipe logo outline@3x</title><desc>Created with Sketch.</desc><g id="Page-1" stroke="none" stroke-width="1" fill="none" fill-rule="evenodd"><g id="Main/Home-Page-Wireframe-Copy-35" transform="translate(-134.000000, -47.000000)" fill="#FFFFFF" fill-rule="nonzero"><g id="Gigapipe-logo-outline" transform="translate(134.000000, 47.000000)"><path d="M21.0828343,14.0550823 L28.1101647,21.0828343 L21.0828343,28.1101647 L14.0550823,21.0828343 L21.0828343,14.0550823 Z M36.8949601,26.3535429 L42.1656687,21.0828343 L21.0828343,4.79368153e-15 L-4.79368153e-15,21.0828343 L21.0828343,42.1656687 L35.1379167,28.1105863 L29.8672081,22.8398777 L21.0828343,31.6242515 L10.5414172,21.0828343 L21.0828343,10.5414172 L31.6242515,21.0828343 L36.8949601,26.3535429 Z" id="Shape"></path><g id="Group" transform="translate(52.707086, 3.921407)"><path d="M14.363735,30.7328693 C13.6542274,31.9523004 12.7191334,32.9006063 11.5584531,33.5777869 C10.3977728,34.2549676 9.12451015,34.5935579 7.73866517,34.5935579 C6.51276863,34.5935579 5.33606537,34.2881379 4.20855539,33.6772979 C3.08104541,33.0664579 2.20231287,32.3111302 1.57235778,31.4113149 C0.944089321,30.5117806 0.525103127,29.6122463 0.315399202,28.7127121 C0.105695276,27.8131778 0.000983865602,26.7863032 0.00126440559,25.6320883 L0.00126440559,8.62372255 C0.00126440559,7.70704092 0.089672322,6.86681969 0.266487026,6.10305888 C0.44330173,5.33929807 1.03165336,4.13420326 2.03154192,2.48777445 C3.03143047,0.841345642 4.9820143,0.0176641133 7.88329341,0.0176641133 C9.15441363,0.013218825 10.4045784,0.341459751 11.5095409,0.969810379 C12.6376131,1.60454424 13.4918896,2.38095476 14.0723703,3.29904192 C14.652851,4.21712908 15.0316392,5.07688706 15.208735,5.87831587 C15.3919894,6.73395188 15.4813471,7.60702726 15.4752221,8.48204591 L15.4752221,9.88447605 L10.9213298,9.88447605 L10.9213298,8.50692365 C10.9213298,7.94949351 10.8971549,7.51504657 10.8488049,7.20358283 C10.8004549,6.8921191 10.5595484,6.42492349 10.1260853,5.80199601 C9.69234115,5.17878743 8.92858034,4.86718313 7.83480289,4.86718313 C6.5805148,4.86718313 5.75252162,5.21547156 5.35082335,5.9120484 C4.94912508,6.60862525 4.71594894,7.12698187 4.65129491,7.46711826 C4.58300258,7.85417318 4.55081836,8.24673594 4.55515719,8.63974551 L4.55515719,25.6662425 C4.55515719,26.3127828 4.57933217,26.7971257 4.62768214,27.1192715 C4.6760321,27.4414172 4.91707917,27.9596332 5.35082335,28.6739197 C5.78428643,29.3882061 6.59625665,29.7450682 7.78673403,29.744506 C9.07278693,29.744506 9.8846166,29.3880655 10.2222231,28.6751846 C10.5598295,27.9623037 10.7608192,27.4359356 10.8251921,27.0960803 C10.8898461,26.756225 10.9221732,26.2805963 10.9221732,25.6691941 L10.9221732,19.7090768 L7.21159431,19.7090768 L7.21159431,15.49251 L15.4760654,15.49251 L15.4760654,25.6544361 C15.4760654,27.077668 15.3953884,28.1022937 15.2340344,28.7283134 C15.0726805,29.354333 14.7825807,30.0225183 14.363735,30.7328693 Z" id="Path"></path><path d="M18.9939471,5.11975549 L18.9939471,0.312869261 L23.590005,0.312869261 L23.590005,5.11975549 L18.9939471,5.11975549 Z M18.9939471,34.3405639 L18.9939471,9.88447605 L23.590005,9.88447605 L23.590005,34.3405639 L18.9939471,34.3405639 Z" id="Shape"></path><path d="M39.5067016,40.9799701 C38.8624102,41.9984115 38.0406013,42.8051813 37.041275,43.4002794 C36.0419486,43.9953776 34.9792332,44.292505 33.8531287,44.2916635 C31.8868031,44.2916635 30.2029874,43.5852462 28.8016816,42.1724152 C27.4003759,40.7595842 26.6995825,38.9973403 26.6993014,36.8856836 L31.2953593,36.8856836 C31.2953593,37.5721407 31.5088581,38.1561352 31.9358558,38.6376672 C32.3628535,39.1191991 32.9212675,39.3594029 33.6110978,39.3582784 C34.5949634,39.3582784 35.3175424,38.8983916 35.7788348,37.9786178 C35.9098295,37.6376381 35.9754674,37.0925765 35.9757485,36.3434331 L35.9757485,31.7962874 C35.5291003,32.6031361 34.8965645,33.2919006 34.1305788,33.8054815 C33.3530439,34.3308658 32.5272996,34.5935579 31.6533458,34.5935579 C30.7275698,34.5978231 29.8219876,34.323048 29.0546756,33.8050599 C28.2613989,33.2793945 27.6948328,32.6774093 27.3549775,31.9991043 C27.0151223,31.3207992 26.8198952,30.7781271 26.7692964,30.3710878 C26.7203842,29.9640486 26.6962092,29.3366234 26.6967715,28.4888124 L26.6967715,15.0577819 C26.6909637,14.490825 26.7643374,13.9258334 26.914768,13.3791667 C27.0606612,12.8706487 27.4654516,12.1328901 28.1291392,11.1658907 C28.7928268,10.1988914 29.950415,9.71574719 31.6019037,9.71574719 C32.459806,9.71118897 33.3015655,9.94899808 34.0302246,10.4018488 C34.7748703,10.8589247 35.4225349,11.493518 35.9732186,12.3056287 L35.9732186,10.0531387 L40.5692764,10.0531387 L40.5692764,36.3434331 C40.5692764,37.2944095 40.496892,38.1350524 40.3521233,38.8653618 C40.1995473,39.6152686 39.9131698,40.3315695 39.5067016,40.9799701 L39.5067016,40.9799701 Z M35.5309007,15.6455714 C35.0381246,14.8410504 34.3976281,14.4386494 33.6094112,14.4383683 C32.6899185,14.4383683 32.0904632,14.7183483 31.8110454,15.2783084 C31.5316276,15.8382685 31.3756146,16.2625956 31.3430065,16.5512899 C31.3097245,16.8471047 31.2932534,17.1445696 31.2936648,17.4422505 L31.2936648,26.6567141 C31.2936648,27.1323428 31.3182693,27.5142232 31.3674626,27.8023553 C31.4166559,28.0904874 31.6055581,28.4722272 31.9341692,28.9475749 C32.2622181,29.4232036 32.8533807,29.6607369 33.7076572,29.6601756 C34.7255364,29.6601756 35.3494478,29.3617823 35.5793912,28.7649975 C35.8093347,28.1682127 35.9244469,27.7160562 35.924728,27.4085279 C35.9208767,27.1563029 35.9373748,26.9041781 35.9740619,26.6546058 L35.9740619,17.8369212 C35.9782302,17.447287 35.9535663,17.0578784 35.900272,16.6718837 C35.8510787,16.3505813 35.7279549,16.0084772 35.5309007,15.6455714 L35.5309007,15.6455714 Z" id="Shape"></path><path d="M44.1731761,31.7486402 C43.9428703,31.3320112 43.7944468,30.8751472 43.7359182,30.4027121 C43.6676914,29.8551478 43.6352955,29.3037125 43.6389371,28.7519261 L43.6389371,26.0082061 C43.6389371,24.2136352 44.0681836,22.8759997 44.9266766,21.9952994 C45.7851697,21.1145991 46.5628451,20.5135978 47.2597031,20.1922954 C47.9562799,19.8707119 48.790598,19.7096391 49.7626572,19.7090768 L52.8732186,19.7090768 L52.8732186,17.6206113 C52.8787739,17.2291352 52.8542457,16.8378107 52.7998503,16.4500923 C52.7512192,16.1445318 52.5476996,15.7539371 52.1892914,15.2783084 C51.8308832,14.8026796 51.3426048,14.5648653 50.7244561,14.5648653 C50.0739804,14.5648653 49.5206262,14.7827212 49.0643937,15.2184331 C48.6081612,15.654145 48.3316949,16.2233816 48.234995,16.9261427 L43.6389371,16.9261427 C43.6389371,14.9606603 44.3078252,13.2740336 45.6456013,11.8662625 C46.9833774,10.4584914 48.603523,9.75573021 50.5060379,9.75797366 C52.3756637,9.75797366 54.0036801,10.4551181 55.3900873,11.8493962 C56.7764945,13.2436743 57.4695576,14.9443563 57.4692765,16.9514421 L57.4692765,34.3426722 L52.8732186,34.3426722 L52.8732186,31.8970634 C52.387189,32.7299759 51.7794411,33.3879009 51.049975,33.8708383 C50.320509,34.3537758 49.502495,34.5953851 48.5959331,34.5956662 C46.5539904,34.5942606 45.079738,33.645252 44.1731761,31.7486402 Z M48.234995,25.968992 L48.234995,27.1917964 C48.234995,27.8383367 48.4570675,28.4251422 48.9012126,28.9522131 C49.3453576,29.4792839 49.9292116,29.7428325 50.6527745,29.7428325 C51.0438178,29.7441909 51.4277728,29.6384684 51.7629965,29.4371183 C52.1025343,29.2387725 52.3768494,28.9457009 52.5523378,28.5938049 C52.7328069,28.2368022 52.8311934,27.7776181 52.8474975,27.2162525 C52.8638016,26.6548869 52.8722347,26.2550158 52.8727969,26.0166392 L52.8727969,23.6696981 L51.0988872,23.6696981 C50.2437675,23.6696981 49.5529533,23.8399069 49.0264446,24.1803244 C48.499936,24.5207418 48.2361194,25.1169644 48.234995,25.968992 Z" id="Shape"></path><path d="M60.9049351,43.9543363 L60.9049351,10.0531387 L65.500993,10.0531387 L65.500993,12.422006 C65.9683518,11.6256722 66.6188159,10.9522249 67.3984481,10.4575075 C68.1513173,9.97083809 69.0293936,9.71345067 69.9258583,9.7166271 C71.2864039,9.7166271 72.4283907,10.2507552 73.3518189,11.3189521 C74.275247,12.387149 74.7371016,13.6509947 74.7373827,15.110489 L74.7373827,29.0546756 C74.7373827,29.7675566 74.6725882,30.3869702 74.542999,30.9129167 C74.4134098,31.4388631 74.0084789,32.1767623 73.3282061,33.1266143 C72.6476522,34.0764662 71.5458633,34.5513922 70.0228393,34.5513922 C67.9817399,34.5513922 66.4751605,33.6497497 65.5031013,31.8464646 L65.5031013,43.9543363 L60.9049351,43.9543363 Z M67.8201048,14.5648653 C67.0959797,14.5648653 66.5285704,14.8286818 66.1178767,15.3563149 C65.7071831,15.8839479 65.5015552,16.5221956 65.500993,17.2710579 L65.500993,26.998256 C65.500993,27.7926572 65.6977661,28.442149 66.0913124,28.9467315 C66.4848586,29.451314 67.1266201,29.7034647 68.0165968,29.7031839 C68.937495,29.7031839 69.5212084,29.4129433 69.767737,28.8324626 C70.0139847,28.2524102 70.1399323,27.6284105 70.1379746,26.998256 L70.1379746,17.2710579 C70.1379746,16.5227578 69.9324642,15.8847913 69.5214895,15.3571582 C69.1105148,14.8295251 68.5433866,14.5654275 67.8201048,14.5648653 L67.8201048,14.5648653 Z" id="Shape"></path><path d="M77.8040918,5.11975549 L77.8040918,0.312869261 L82.4001497,0.312869261 L82.4001497,5.11975549 L77.8040918,5.11975549 Z M77.8040918,34.3405639 L77.8040918,9.88447605 L82.4001497,9.88447605 L82.4001497,34.3405639 L77.8040918,34.3405639 Z" id="Shape"></path><path d="M85.9277295,43.9543363 L85.9277295,10.0531387 L90.5237874,10.0531387 L90.5237874,12.422006 C90.9909221,11.625276 91.6414188,10.951506 92.4212425,10.4566642 C93.1741117,9.96999477 94.0521881,9.71260736 94.9486527,9.71578378 C96.3094794,9.71578378 97.4514662,10.2499118 98.3746133,11.3181088 C99.2977603,12.3863057 99.7589122,13.6504325 99.75807,15.110489 L99.75807,29.0546756 C99.75807,29.7675566 99.6932743,30.3869702 99.5636851,30.9129167 C99.434096,31.4388631 99.029165,32.1767623 98.3488922,33.1266143 C97.6683383,34.0764662 96.5665494,34.5513922 95.0435254,34.5513922 C93.002426,34.5513922 91.4958466,33.6497497 90.5237874,31.8464646 L90.5237874,43.9543363 L85.9277295,43.9543363 Z M92.8428992,14.5648653 C92.1187741,14.5648653 91.5512242,14.8286818 91.1402495,15.3563149 C90.7292748,15.8839479 90.5237874,16.5221956 90.5237874,17.2710579 L90.5237874,26.998256 C90.5237874,27.7926572 90.7205605,28.442149 91.1141068,28.9467315 C91.507653,29.451314 92.1494145,29.7034647 93.0393912,29.7031839 C93.9602894,29.7031839 94.5440028,29.4129433 94.7905314,28.8324626 C95.0367791,28.2524102 95.1627267,27.6284105 95.160769,26.998256 L95.160769,17.2710579 C95.160769,16.5227578 94.9551181,15.8847913 94.5438623,15.3571582 C94.1326065,14.8295251 93.5656188,14.5654275 92.8428992,14.5648653 L92.8428992,14.5648653 Z" id="Shape"></path><path d="M109.241971,29.6601747 C109.925617,29.6601747 110.478831,29.4386643 110.901612,28.9956437 C111.324393,28.5526231 111.584977,27.9729857 111.683363,27.2567315 L116.279421,27.2567315 L116.279421,27.8175349 C116.274499,28.5877788 116.118193,29.3495406 115.819394,30.0594835 C115.51299,30.8066592 114.876288,31.7492024 113.909289,32.8871133 C112.94229,34.0250241 111.427277,34.593839 109.364251,34.593558 C108.043061,34.593558 106.825878,34.2205323 105.712705,33.474481 C104.599531,32.7284298 103.833943,31.9054965 103.415941,31.0056811 C102.997095,30.1061469 102.73117,29.2920684 102.618166,28.5634456 C102.506295,27.8475522 102.449907,27.124085 102.449503,26.3995035 L102.449503,17.1867265 C102.449503,15.1852628 103.134415,13.4463506 104.504237,11.96999 C105.874059,10.4936294 107.510649,9.75629242 109.414007,9.75797615 C111.381738,9.75797615 113.017766,10.4778876 114.322091,11.9177046 C115.626416,13.3575216 116.279421,15.110489 116.281108,17.1766068 L116.281108,23.883478 L107.046826,23.883478 L107.046826,27.5130988 C107.046826,28.0244278 107.282673,28.5101763 107.754366,28.9703443 C108.22606,29.4305123 108.721928,29.6604558 109.241971,29.6601747 Z M109.364251,14.5648653 C108.739075,14.5648653 108.196122,14.7838456 107.735392,15.2218064 C107.274662,15.6597671 107.044578,16.4343505 107.045139,17.5455564 L107.045139,19.9199052 L111.683363,19.9199052 L111.683363,17.5455564 C111.683363,16.669916 111.502332,15.9542241 111.140269,15.3984805 C110.778207,14.842737 110.186201,14.5648653 109.364251,14.5648653 L109.364251,14.5648653 Z" id="Shape"></path></g></g></g></g></svg>