<?xml version="1.0" encoding="UTF-8" standalone="no" ?>
<!DOCTYPE svg PUBLIC "-//W3C//DTD SVG 1.1//EN" "http://www.w3.org/Graphics/SVG/1.1/DTD/svg11.dtd">
<svg xmlns="http://www.w3.org/2000/svg" xmlns:xlink="http://www.w3.org/1999/xlink" version="1.1" width="1080" height="1080" viewBox="0 0 1080 1080" xml:space="preserve">
<desc>Created with Fabric.js 5.2.4</desc>
<defs>
</defs>
<g transform="matrix(1 0 0 1 540 540)" id="afe22d71-0ad1-4fde-b27b-f34dcd42ef1e"  >
<rect style="stroke: none; stroke-width: 1; stroke-dasharray: none; stroke-linecap: butt; stroke-dashoffset: 0; stroke-linejoin: miter; stroke-miterlimit: 4; fill: rgb(255,255,255); fill-rule: nonzero; opacity: 1; visibility: hidden;" vector-effect="non-scaling-stroke"  x="-540" y="-540" rx="0" ry="0" width="1080" height="1080" />
</g>
<g transform="matrix(1 0 0 1 540 540)" id="7fe64f7e-3f09-44a0-a8d6-d813e90794ec"  >
</g>
<g transform="matrix(1 0 0 1 512.11 542.07)"  >
<path style="stroke: none; stroke-width: 1; stroke-dasharray: none; stroke-linecap: butt; stroke-dashoffset: 0; stroke-linejoin: miter; stroke-miterlimit: 4; fill: rgb(29,194,124); fill-rule: nonzero; opacity: 1;" vector-effect="non-scaling-stroke"  transform=" translate(-6.16, -15.7)" d="M 11.22 23 L 8.02 23 L 8.02 17.1 C 8.02 16.42 7.88 15.92 7.6 15.6 C 7.33333 15.28 6.97333 15.12 6.52 15.12 C 6.28 15.12 6.00667 15.2 5.7 15.36 C 5.40667 15.5067 5.13333 15.72 4.88 16 C 4.62667 16.28 4.43333 16.6067 4.3 16.98 L 4.3 23 L 1.1 23 L 1.1 8.4 L 4.3 8.4 L 4.3 14.26 C 4.68667 13.6333 5.19333 13.1533 5.82 12.82 C 6.46 12.4733 7.16 12.3 7.92 12.3 C 8.64 12.3 9.21333 12.42 9.64 12.66 C 10.08 12.9 10.4133 13.22 10.64 13.62 C 10.8667 14.0067 11.02 14.4333 11.1 14.9 C 11.18 15.3667 11.22 15.8267 11.22 16.28 L 11.22 23 Z" stroke-linecap="round" />
</g>
<g transform="matrix(1 0 0 1 541.12 544.2)"  >
<path style="stroke: none; stroke-width: 1; stroke-dasharray: none; stroke-linecap: butt; stroke-dashoffset: 0; stroke-linejoin: miter; stroke-miterlimit: 4; fill: rgb(255,255,255); fill-rule: nonzero; opacity: 1;" vector-effect="non-scaling-stroke"  transform=" translate(-35.17, -17.83)" d="M 18.3661 23.2 C 17.4728 23.2 16.6794 23.06 15.9861 22.78 C 15.2928 22.4867 14.6994 22.0933 14.2061 21.6 C 13.7261 21.1067 13.3594 20.54 13.1061 19.9 C 12.8528 19.2467 12.7261 18.5667 12.7261 17.86 C 12.7261 16.8467 12.9461 15.9267 13.3861 15.1 C 13.8394 14.26 14.4861 13.5867 15.3261 13.08 C 16.1661 12.56 17.1794 12.3 18.3661 12.3 C 19.5528 12.3 20.5594 12.5533 21.3861 13.06 C 22.2261 13.5667 22.8661 14.2333 23.3061 15.06 C 23.7461 15.8733 23.9661 16.76 23.9661 17.72 C 23.9661 17.9067 23.9528 18.0933 23.9261 18.28 C 23.9128 18.4533 23.8994 18.6067 23.8861 18.74 L 16.1261 18.74 C 16.1661 19.2067 16.2928 19.6 16.5061 19.92 C 16.7328 20.24 17.0194 20.4867 17.3661 20.66 C 17.7128 20.82 18.0794 20.9 18.4661 20.9 C 18.9461 20.9 19.3928 20.7867 19.8061 20.56 C 20.2328 20.3333 20.5261 20.0267 20.6861 19.64 L 23.4061 20.4 C 23.1394 20.9467 22.7594 21.4333 22.2661 21.86 C 21.7861 22.2733 21.2128 22.6 20.5461 22.84 C 19.8928 23.08 19.1661 23.2 18.3661 23.2 Z M 16.0461 16.78 L 20.6061 16.78 C 20.5528 16.34 20.4261 15.96 20.2261 15.64 C 20.0261 15.3067 19.7594 15.0533 19.4261 14.88 C 19.0928 14.6933 18.7261 14.6 18.3261 14.6 C 17.9128 14.6 17.5394 14.6933 17.2061 14.88 C 16.8861 15.0533 16.6261 15.3067 16.4261 15.64 C 16.2261 15.96 16.0994 16.34 16.0461 16.78 Z M 32.0564 23.2 C 31.2697 23.2 30.5831 23.0333 29.9964 22.7 C 29.4097 22.3533 28.9497 21.8867 28.6164 21.3 L 28.6164 27.26 L 25.4164 27.26 L 25.4164 12.5 L 28.1964 12.5 L 28.1964 14.2 C 28.5831 13.6 29.0697 13.1333 29.6564 12.8 C 30.2431 12.4667 30.9297 12.3 31.7164 12.3 C 32.4231 12.3 33.0697 12.44 33.6564 12.72 C 34.2564 13 34.7764 13.3867 35.2164 13.88 C 35.6564 14.3733 35.9964 14.9467 36.2364 15.6 C 36.4764 16.2533 36.5964 16.96 36.5964 17.72 C 36.5964 18.76 36.4031 19.6933 36.0164 20.52 C 35.6297 21.3467 35.0897 22 34.3964 22.48 C 33.7164 22.96 32.9364 23.2 32.0564 23.2 Z M 30.9764 20.5 C 31.3231 20.5 31.6364 20.4267 31.9164 20.28 C 32.2097 20.12 32.4631 19.9133 32.6764 19.66 C 32.8897 19.4067 33.0497 19.1133 33.1564 18.78 C 33.2764 18.4333 33.3364 18.0733 33.3364 17.7 C 33.3364 17.3133 33.2697 16.96 33.1364 16.64 C 33.0164 16.32 32.8431 16.04 32.6164 15.8 C 32.3897 15.5467 32.1231 15.3533 31.8164 15.22 C 31.5097 15.0867 31.1764 15.02 30.8164 15.02 C 30.6031 15.02 30.3831 15.0533 30.1564 15.12 C 29.9431 15.1867 29.7364 15.2867 29.5364 15.42 C 29.3497 15.54 29.1764 15.6867 29.0164 15.86 C 28.8564 16.0333 28.7231 16.2333 28.6164 16.46 L 28.6164 18.62 C 28.7631 18.98 28.9564 19.3 29.1964 19.58 C 29.4364 19.86 29.7097 20.0867 30.0164 20.26 C 30.3231 20.42 30.6431 20.5 30.9764 20.5 Z M 38.2094 23 L 38.2094 12.5 L 41.4094 12.5 L 41.4094 23 L 38.2094 23 Z M 38.2094 11.3 L 38.2094 8.4 L 41.4094 8.4 L 41.4094 11.3 L 38.2094 11.3 Z M 48.62 23.2 C 47.7267 23.2 46.9333 23.0533 46.24 22.76 C 45.5467 22.4667 44.9533 22.0667 44.46 21.56 C 43.98 21.0533 43.6133 20.4733 43.36 19.82 C 43.1067 19.1667 42.98 18.4733 42.98 17.74 C 42.98 16.78 43.2 15.8867 43.64 15.06 C 44.0933 14.2333 44.74 13.5667 45.58 13.06 C 46.42 12.5533 47.4333 12.3 48.62 12.3 C 49.82 12.3 50.8333 12.56 51.66 13.08 C 52.5 13.5867 53.1267 14.2533 53.54 15.08 L 50.42 16.02 C 50.22 15.7 49.96 15.4533 49.64 15.28 C 49.3333 15.1067 48.9867 15.02 48.6 15.02 C 48.16 15.02 47.76 15.1333 47.4 15.36 C 47.0533 15.5867 46.7733 15.9 46.56 16.3 C 46.36 16.7 46.26 17.18 46.26 17.74 C 46.26 18.2867 46.3667 18.7667 46.58 19.18 C 46.7933 19.5933 47.0733 19.92 47.42 20.16 C 47.7667 20.3867 48.16 20.5 48.6 20.5 C 48.8667 20.5 49.1133 20.46 49.34 20.38 C 49.58 20.2867 49.7933 20.16 49.98 20 C 50.18 19.84 50.3333 19.66 50.44 19.46 L 53.56 20.42 C 53.3067 20.9533 52.94 21.4333 52.46 21.86 C 51.9933 22.2733 51.44 22.6 50.8 22.84 C 50.16 23.08 49.4333 23.2 48.62 23.2 Z M 54.9863 23 L 54.9863 19.74 L 57.6063 19.74 L 57.6063 23 L 54.9863 23 Z" stroke-linecap="round" />
</g>
</svg>