<svg xmlns="http://www.w3.org/2000/svg" width="69" height="34" viewBox="0 0 69 34" fill="none"><path d="M56 6.99993L59.6665 10.5L56 13.9999L52.3333 10.5L56 6.99993ZM64.25 13.125L67 10.5L56 0L45 10.5L56 21L63.3333 14.0001L60.5833 11.3751L56 15.75L50.5 10.5L56 5.25L61.5 10.5L64.25 13.125Z" fill="#7D12FF"></path><path d="M11.22 23H8.02V17.1C8.02 16.42 7.88 15.92 7.6 15.6C7.33333 15.28 6.97333 15.12 6.52 15.12C6.28 15.12 6.00667 15.2 5.7 15.36C5.40667 15.5067 5.13333 15.72 4.88 16C4.62667 16.28 4.43333 16.6067 4.3 16.98V23H1.1V8.4H4.3V14.26C4.68667 13.6333 5.19333 13.1533 5.82 12.82C6.46 12.4733 7.16 12.3 7.92 12.3C8.64 12.3 9.21333 12.42 9.64 12.66C10.08 12.9 10.4133 13.22 10.64 13.62C10.8667 14.0067 11.02 14.4333 11.1 14.9C11.18 15.3667 11.22 15.8267 11.22 16.28V23Z" fill="#1DC27C"></path><path d="M18.3661 23.2C17.4728 23.2 16.6794 23.06 15.9861 22.78C15.2928 22.4867 14.6994 22.0933 14.2061 21.6C13.7261 21.1067 13.3594 20.54 13.1061 19.9C12.8528 19.2467 12.7261 18.5667 12.7261 17.86C12.7261 16.8467 12.9461 15.9267 13.3861 15.1C13.8394 14.26 14.4861 13.5867 15.3261 13.08C16.1661 12.56 17.1794 12.3 18.3661 12.3C19.5528 12.3 20.5594 12.5533 21.3861 13.06C22.2261 13.5667 22.8661 14.2333 23.3061 15.06C23.7461 15.8733 23.9661 16.76 23.9661 17.72C23.9661 17.9067 23.9528 18.0933 23.9261 18.28C23.9128 18.4533 23.8994 18.6067 23.8861 18.74H16.1261C16.1661 19.2067 16.2928 19.6 16.5061 19.92C16.7328 20.24 17.0194 20.4867 17.3661 20.66C17.7128 20.82 18.0794 20.9 18.4661 20.9C18.9461 20.9 19.3928 20.7867 19.8061 20.56C20.2328 20.3333 20.5261 20.0267 20.6861 19.64L23.4061 20.4C23.1394 20.9467 22.7594 21.4333 22.2661 21.86C21.7861 22.2733 21.2128 22.6 20.5461 22.84C19.8928 23.08 19.1661 23.2 18.3661 23.2ZM16.0461 16.78H20.6061C20.5528 16.34 20.4261 15.96 20.2261 15.64C20.0261 15.3067 19.7594 15.0533 19.4261 14.88C19.0928 14.6933 18.7261 14.6 18.3261 14.6C17.9128 14.6 17.5394 14.6933 17.2061 14.88C16.8861 15.0533 16.6261 15.3067 16.4261 15.64C16.2261 15.96 16.0994 16.34 16.0461 16.78ZM32.0564 23.2C31.2697 23.2 30.5831 23.0333 29.9964 22.7C29.4097 22.3533 28.9497 21.8867 28.6164 21.3V27.26H25.4164V12.5H28.1964V14.2C28.5831 13.6 29.0697 13.1333 29.6564 12.8C30.2431 12.4667 30.9297 12.3 31.7164 12.3C32.4231 12.3 33.0697 12.44 33.6564 12.72C34.2564 13 34.7764 13.3867 35.2164 13.88C35.6564 14.3733 35.9964 14.9467 36.2364 15.6C36.4764 16.2533 36.5964 16.96 36.5964 17.72C36.5964 18.76 36.4031 19.6933 36.0164 20.52C35.6297 21.3467 35.0897 22 34.3964 22.48C33.7164 22.96 32.9364 23.2 32.0564 23.2ZM30.9764 20.5C31.3231 20.5 31.6364 20.4267 31.9164 20.28C32.2097 20.12 32.4631 19.9133 32.6764 19.66C32.8897 19.4067 33.0497 19.1133 33.1564 18.78C33.2764 18.4333 33.3364 18.0733 33.3364 17.7C33.3364 17.3133 33.2697 16.96 33.1364 16.64C33.0164 16.32 32.8431 16.04 32.6164 15.8C32.3897 15.5467 32.1231 15.3533 31.8164 15.22C31.5097 15.0867 31.1764 15.02 30.8164 15.02C30.6031 15.02 30.3831 15.0533 30.1564 15.12C29.9431 15.1867 29.7364 15.2867 29.5364 15.42C29.3497 15.54 29.1764 15.6867 29.0164 15.86C28.8564 16.0333 28.7231 16.2333 28.6164 16.46V18.62C28.7631 18.98 28.9564 19.3 29.1964 19.58C29.4364 19.86 29.7097 20.0867 30.0164 20.26C30.3231 20.42 30.6431 20.5 30.9764 20.5ZM38.2094 23V12.5H41.4094V23H38.2094ZM38.2094 11.3V8.4H41.4094V11.3H38.2094ZM48.62 23.2C47.7267 23.2 46.9333 23.0533 46.24 22.76C45.5467 22.4667 44.9533 22.0667 44.46 21.56C43.98 21.0533 43.6133 20.4733 43.36 19.82C43.1067 19.1667 42.98 18.4733 42.98 17.74C42.98 16.78 43.2 15.8867 43.64 15.06C44.0933 14.2333 44.74 13.5667 45.58 13.06C46.42 12.5533 47.4333 12.3 48.62 12.3C49.82 12.3 50.8333 12.56 51.66 13.08C52.5 13.5867 53.1267 14.2533 53.54 15.08L50.42 16.02C50.22 15.7 49.96 15.4533 49.64 15.28C49.3333 15.1067 48.9867 15.02 48.6 15.02C48.16 15.02 47.76 15.1333 47.4 15.36C47.0533 15.5867 46.7733 15.9 46.56 16.3C46.36 16.7 46.26 17.18 46.26 17.74C46.26 18.2867 46.3667 18.7667 46.58 19.18C46.7933 19.5933 47.0733 19.92 47.42 20.16C47.7667 20.3867 48.16 20.5 48.6 20.5C48.8667 20.5 49.1133 20.46 49.34 20.38C49.58 20.2867 49.7933 20.16 49.98 20C50.18 19.84 50.3333 19.66 50.44 19.46L53.56 20.42C53.3067 20.9533 52.94 21.4333 52.46 21.86C51.9933 22.2733 51.44 22.6 50.8 22.84C50.16 23.08 49.4333 23.2 48.62 23.2ZM54.9863 23V19.74H57.6063V23H54.9863Z" fill="white"></path></svg>